<svg width="2027" height="1037" viewBox="0 0 2027 1037" fill="none" xmlns="http://www.w3.org/2000/svg">
<path d="M782.216 979.486C1140.31 1010.39 1339.08 1017.88 1689.15 1013.39L1690.99 1013.23C1838.1 999.857 1903.99 993.868 2013.31 915.872C2015.71 914.166 2016.9 913.313 2017.65 912.074C2018.4 910.836 2018.59 909.408 2018.98 906.551L2018.98 906.549C2026.25 853.358 2023.8 807.395 1959.15 775.073C1892.15 741.573 1333.04 762.384 1193.15 763.394C1055.03 764.39 1015.35 707.455 925.62 686.192L925.619 686.192C923.847 685.772 922.961 685.562 922.208 685.176C921.455 684.791 920.79 684.214 919.458 683.06L919.458 683.06C667.873 465.087 513.019 317.805 295.598 12.443C293.644 9.69856 292.667 8.32635 291.263 7.5554C289.858 6.78444 288.209 6.69821 284.909 6.52573C198.521 2.01004 147.343 7.20957 60.4537 26.2262C57.8261 26.8012 56.5123 27.0888 55.412 27.8242C54.3117 28.5596 53.5555 29.6465 52.0431 31.8202C26.3442 68.7559 16.0225 92.6962 5.74415 133.946C5.20025 136.129 4.9283 137.221 5.0139 138.347C5.09951 139.474 5.54316 140.535 6.43045 142.658C54.6016 257.912 86.9909 314.289 150.448 394.965C151.796 396.678 152.469 397.535 152.848 398.518C153.227 399.502 153.303 400.6 153.454 402.797V402.797C177.167 747.055 210.648 868.426 398.118 992.074L398.119 992.075C399.866 993.228 400.74 993.804 401.726 994.099C402.712 994.395 403.756 994.394 405.845 994.392C549.662 994.267 651.953 987.695 779.902 979.474L780.094 979.462C780.624 979.428 780.889 979.411 781.152 979.414C781.415 979.416 781.682 979.44 782.216 979.486Z" stroke="#1A1A1A" stroke-width="10" stroke-linejoin="round"/>
<line x1="1693.14" y1="975.385" x2="1690.14" y2="1036.38" stroke="white" stroke-width="20"/>
</svg>
